<?xml version="1.0" encoding="UTF-8"?>
<!DOCTYPE svg PUBLIC "-//W3C//DTD SVG 1.1//EN" "http://www.w3.org/Graphics/SVG/1.1/DTD/svg11.dtd">
<svg xmlns="http://www.w3.org/2000/svg" version="1.1" width="512px" height="512px" style="shape-rendering:geometricPrecision; text-rendering:geometricPrecision; image-rendering:optimizeQuality; fill-rule:evenodd; clip-rule:evenodd" xmlns:xlink="http://www.w3.org/1999/xlink">
<g><path style="opacity:0.999" fill="#5c62ec" d="M 40.5,-0.5 C 183.833,-0.5 327.167,-0.5 470.5,-0.5C 491.833,5.5 505.5,19.1667 511.5,40.5C 511.5,183.833 511.5,327.167 511.5,470.5C 505.5,491.833 491.833,505.5 470.5,511.5C 327.167,511.5 183.833,511.5 40.5,511.5C 19.1667,505.5 5.5,491.833 -0.5,470.5C -0.5,327.167 -0.5,183.833 -0.5,40.5C 5.5,19.1667 19.1667,5.5 40.5,-0.5 Z"/></g>
<g><path style="opacity:1" fill="#fefefe" d="M 456.5,99.5 C 458.033,125.818 458.866,152.152 459,178.5C 426.67,221.173 394.836,264.173 363.5,307.5C 362.711,307.783 362.044,308.283 361.5,309C 393.165,309.5 424.832,309.667 456.5,309.5C 456.5,311.167 456.5,312.833 456.5,314.5C 455.936,343.163 455.603,371.83 455.5,400.5C 391.478,402.641 327.478,405.308 263.5,408.5C 260.667,379.838 258.167,351.171 256,322.5C 292.954,274.757 329.788,226.924 366.5,179C 332.491,180.731 298.491,182.898 264.5,185.5C 264.5,171.833 264.5,158.167 264.5,144.5C 264.5,129.5 264.5,114.5 264.5,99.5C 328.5,99.5 392.5,99.5 456.5,99.5 Z"/></g>
<g><path style="opacity:1" fill="#d4d6f9" d="M 255.5,103.5 C 189.833,103.5 124.167,103.5 58.5,103.5C 58.8214,109.026 58.4881,114.36 57.5,119.5C 57.5,113.833 57.5,108.167 57.5,102.5C 123.669,102.168 189.669,102.501 255.5,103.5 Z"/></g>
<g><path style="opacity:1" fill="#fefefe" d="M 255.5,103.5 C 254.323,129.839 252.99,156.172 251.5,182.5C 220.833,184.167 190.166,185.833 159.5,187.5C 158.89,193.815 158.557,200.149 158.5,206.5C 157.527,208.948 157.194,211.615 157.5,214.5C 178.833,214.5 200.167,214.5 221.5,214.5C 219.669,236.8 218.336,259.134 217.5,281.5C 195.829,281.583 174.162,281.917 152.5,282.5C 151.928,293.173 151.261,303.84 150.5,314.5C 180.833,314.5 211.167,314.5 241.5,314.5C 239.833,345.835 238.166,377.168 236.5,408.5C 174.822,409.405 113.155,410.738 51.5,412.5C 53.4408,314.833 55.4408,217.166 57.5,119.5C 58.4881,114.36 58.8214,109.026 58.5,103.5C 124.167,103.5 189.833,103.5 255.5,103.5 Z"/></g>
<g><path style="opacity:1" fill="#9799f2" d="M 456.5,99.5 C 392.5,99.5 328.5,99.5 264.5,99.5C 264.5,114.5 264.5,129.5 264.5,144.5C 263.504,129.342 263.17,114.009 263.5,98.5C 328.002,98.1675 392.335,98.5009 456.5,99.5 Z"/></g>
<g><path style="opacity:1" fill="#777aee" d="M 158.5,206.5 C 158.5,208.833 158.5,211.167 158.5,213.5C 179.673,213.169 200.673,213.503 221.5,214.5C 200.167,214.5 178.833,214.5 157.5,214.5C 157.194,211.615 157.527,208.948 158.5,206.5 Z"/></g>
<g><path style="opacity:1" fill="#7075ee" d="M 363.5,307.5 C 394.662,308.498 425.996,308.832 457.5,308.5C 457.795,310.735 457.461,312.735 456.5,314.5C 456.5,312.833 456.5,311.167 456.5,309.5C 424.832,309.667 393.165,309.5 361.5,309C 362.044,308.283 362.711,307.783 363.5,307.5 Z"/></g>
</svg>
