<?xml version="1.0" encoding="utf-8"?><svg viewBox="0 0 502.66 502.66" xmlns="http://www.w3.org/2000/svg" xmlns:xlink="http://www.w3.org/1999/xlink"><style>:root>svg{display:none}:root>svg:target{display:block}</style><svg viewBox="0 0 38 38" id="git" xmlns="http://www.w3.org/2000/svg"><path d="M12.71 29.833c0 .153-.176.276-.398.276-.253.023-.43-.1-.43-.276 0-.153.177-.276.399-.276.23-.023.43.1.43.276zm-2.383-.345c-.053.154.1.33.33.376.199.076.429 0 .475-.154.046-.153-.1-.329-.33-.398-.199-.053-.421.023-.475.176zm3.387-.13c-.223.054-.376.2-.353.375.023.154.223.253.452.2.223-.054.376-.2.353-.353-.023-.145-.23-.245-.452-.222zM18.754 0C8.13 0 0 8.067 0 18.694 0 27.19 5.348 34.46 12.986 37.019c.98.177 1.325-.429 1.325-.927 0-.475-.023-3.095-.023-4.704 0 0-5.363 1.15-6.489-2.283 0 0-.873-2.23-2.13-2.804 0 0-1.754-1.203.123-1.18 0 0 1.908.154 2.957 1.977 1.678 2.957 4.49 2.107 5.585 1.601.177-1.226.675-2.076 1.226-2.582-4.283-.475-8.604-1.095-8.604-8.465 0-2.107.583-3.165 1.809-4.513-.2-.498-.85-2.551.199-5.202 1.6-.498 5.286 2.069 5.286 2.069a18.002 18.002 0 014.811-.652c1.632 0 3.28.223 4.812.652 0 0 3.685-2.575 5.286-2.069 1.05 2.659.398 4.704.2 5.202 1.225 1.356 1.976 2.413 1.976 4.513 0 7.393-4.513 7.983-8.796 8.465.705.606 1.303 1.755 1.303 3.555 0 2.582-.023 5.777-.023 6.405 0 .498.352 1.103 1.325.927C32.806 34.461 38 27.19 38 18.694 38 8.066 29.381 0 18.755 0zM7.448 26.424c-.1.076-.077.253.053.398.123.123.3.176.399.077.1-.077.076-.253-.054-.399-.122-.122-.299-.176-.398-.076zm-.828-.62c-.053.099.023.221.177.298.122.077.275.054.329-.054.054-.1-.023-.222-.176-.298-.153-.046-.276-.023-.33.053zm2.483 2.727c-.123.1-.077.33.1.475.175.176.398.199.497.076.1-.1.054-.33-.1-.475-.168-.176-.398-.199-.497-.076zm-.874-1.127c-.122.077-.122.276 0 .453.123.176.33.252.43.176.122-.1.122-.3 0-.475-.108-.177-.307-.253-.43-.154z"/></svg><svg viewBox="0 0 502.664 502.664" id="icon" xmlns="http://www.w3.org/2000/svg"><path d="M153.821 358.226L0 274.337v-46.463l153.821-83.414v54.574L46.636 250.523l107.185 53.431v54.272zm26.273 29.358L282.103 115.08h32.227L212.084 387.584h-31.99zm168.749-29.358v-54.272l107.164-52.999-107.164-52.59v-53.927l153.821 83.522v46.183l-153.821 84.083z"/></svg><svg viewBox="0 0 38 38" id="inst" xmlns="http://www.w3.org/2000/svg"><path d="M19.004 9.255a9.725 9.725 0 00-9.74 9.74 9.725 9.725 0 009.74 9.741 9.725 9.725 0 009.74-9.74 9.725 9.725 0 00-9.74-9.74zm0 16.073c-3.484 0-6.332-2.84-6.332-6.332a6.339 6.339 0 016.332-6.333 6.339 6.339 0 016.333 6.333c0 3.492-2.849 6.332-6.333 6.332zM31.415 8.857a2.267 2.267 0 01-2.272 2.272 2.272 2.272 0 112.272-2.272zm6.452 2.306c-.145-3.044-.84-5.74-3.07-7.96C32.578.98 29.882.285 26.838.132c-3.136-.178-12.538-.178-15.674 0-3.035.145-5.731.84-7.96 3.06C.972 5.416.285 8.112.132 11.155c-.178 3.137-.178 12.538 0 15.675.145 3.043.84 5.74 3.07 7.96 2.229 2.221 4.916 2.916 7.96 3.069 3.136.178 12.538.178 15.674 0 3.044-.144 5.74-.84 7.96-3.069 2.222-2.22 2.917-4.917 3.07-7.96.178-3.137.178-12.53 0-15.666zm-4.053 19.031a6.411 6.411 0 01-3.611 3.612c-2.5.992-8.435.763-11.199.763-2.763 0-8.706.22-11.198-.763a6.411 6.411 0 01-3.612-3.612c-.992-2.5-.763-8.435-.763-11.198 0-2.764-.22-8.706.763-11.199a6.411 6.411 0 013.612-3.611c2.5-.992 8.435-.763 11.198-.763 2.764 0 8.706-.22 11.199.763a6.411 6.411 0 013.611 3.611c.992 2.5.763 8.435.763 11.199 0 2.763.23 8.706-.763 11.198z"/></svg><svg viewBox="0 0 38 38" id="linked" xmlns="http://www.w3.org/2000/svg"><path d="M35.286 0H2.706C1.213 0 0 1.23 0 2.74v32.52C0 36.77 1.213 38 2.706 38h32.58C36.779 38 38 36.77 38 35.26V2.74C38 1.23 36.779 0 35.286 0zM11.485 32.571H5.853V14.437h5.64V32.57h-.008zM8.669 11.96a3.267 3.267 0 01-3.266-3.266A3.267 3.267 0 018.67 5.43a3.272 3.272 0 013.265 3.265A3.262 3.262 0 018.67 11.96zm23.928 20.61h-5.632v-8.82c0-2.104-.043-4.81-2.927-4.81-2.934 0-3.384 2.29-3.384 4.657v8.974h-5.632V14.437h5.403v2.476h.076c.755-1.425 2.596-2.926 5.336-2.926 5.7 0 6.76 3.758 6.76 8.643v9.941z"/></svg><svg viewBox="0 0 38 31" id="twitter" xmlns="http://www.w3.org/2000/svg"><path d="M34.094 7.692c.024.337.024.675.024 1.012 0 10.296-7.836 22.159-22.159 22.159A22.009 22.009 0 010 27.367c.627.072 1.23.096 1.88.096 3.642 0 6.993-1.23 9.67-3.327a7.802 7.802 0 01-7.282-5.401c.482.072.964.12 1.47.12.7 0 1.4-.096 2.05-.265a7.79 7.79 0 01-6.245-7.643v-.097a7.842 7.842 0 003.52.989 7.783 7.783 0 01-3.472-6.486 7.73 7.73 0 011.061-3.93 22.137 22.137 0 0016.059 8.15 8.794 8.794 0 01-.193-1.785A7.785 7.785 0 0126.306 0a7.77 7.77 0 015.69 2.46A15.333 15.333 0 0036.94.578a7.767 7.767 0 01-3.424 4.292 15.638 15.638 0 004.485-1.206 16.741 16.741 0 01-3.906 4.027z"/></svg><svg viewBox="0 0 38 23" id="vk" xmlns="http://www.w3.org/2000/svg"><path d="M37.134 1.53c.261-.881 0-1.53-1.256-1.53h-4.155c-1.058 0-1.545.557-1.806 1.178 0 0-2.116 5.157-5.107 8.5-.966.967-1.41 1.277-1.94 1.277-.26 0-.663-.31-.663-1.192V1.531C22.207.473 21.911 0 21.036 0h-6.532c-.663 0-1.059.494-1.059.952 0 1.002 1.496 1.235 1.651 4.057v6.123c0 1.34-.24 1.587-.769 1.587-1.41 0-4.839-5.178-6.87-11.104C7.046.465 6.644 0 5.58 0H1.425C.24 0 0 .557 0 1.178c0 1.1 1.41 6.568 6.568 13.791 3.435 4.931 8.274 7.605 12.676 7.605 2.646 0 2.97-.593 2.97-1.616 0-4.712-.24-5.156 1.086-5.156.614 0 1.672.31 4.141 2.687 2.822 2.822 3.288 4.085 4.868 4.085h4.155c1.185 0 1.785-.593 1.439-1.764-.79-2.462-6.13-7.527-6.37-7.865-.614-.79-.438-1.143 0-1.848.007-.008 5.079-7.147 5.601-9.566z"/></svg></svg>