  <svg xmlns="http://www.w3.org/2000/svg" width="2550" height="300" viewBox="0 0 2550 300">

      <path d="M0 264L13.7 269.2C27.3 274.3 54.7 284.7 82.2 286.3C109.7 288 137.3 281 164.8 280.2C192.3 279.3 219.7 284.7 247 286.5C274.3 288.3 301.7 286.7 329 279.2C356.3 271.7 383.7 258.3 411.2 256.3C438.7 254.3 466.3 263.7 493.8 265.5C521.3 267.3 548.7 261.7 576 259.3C603.3 257 630.7 258 658 264C685.3 270 712.7 281 740.2 286.3C767.7 291.7 795.3 291.3 822.8 288.8C850.3 286.3 877.7 281.7 905 276.8C932.3 272 959.7 267 987 266.5C1014.3 266 1041.7 270 1069.2 274.7C1096.7 279.3 1124.3 284.7 1151.8 284.7C1179.3 284.7 1206.7 279.3 1234 272C1261.3 264.7 1288.7 255.3 1316 256.8C1343.3 258.3 1370.7 270.7 1398.2 270.2C1425.7 269.7 1453.3 256.3 1480.8 252C1508.3 247.7 1535.7 252.3 1563 259.5C1590.3 266.7 1617.7 276.3 1645 282.3C1672.3 288.3 1699.7 290.7 1727.2 289.2C1754.7 287.7 1782.3 282.3 1809.8 278.7C1837.3 275 1864.7 273 1892 275C1919.3 277 1946.7 283 1974 280.2C2001.3 277.3 2028.7 265.7 2056.2 260.2C2083.7 254.7 2111.3 255.3 2138.8 256.8C2166.3 258.3 2193.7 260.7 2221 263C2248.3 265.3 2275.7 267.7 2303 266.7C2330.3 265.7 2357.7 261.3 2385.2 258.3C2412.7 255.3 2440.3 253.7 2467.8 260.3C2495.3 267 2522.7 282 2536.3 289.5L2550 297L2550 301L2536.3 301C2522.7 301 2495.3 301 2467.8 301C2440.3 301 2412.7 301 2385.2 301C2357.7 301 2330.3 301 2303 301C2275.7 301 2248.3 301 2221 301C2193.7 301 2166.3 301 2138.8 301C2111.3 301 2083.7 301 2056.2 301C2028.7 301 2001.3 301 1974 301C1946.7 301 1919.3 301 1892 301C1864.7 301 1837.3 301 1809.8 301C1782.3 301 1754.7 301 1727.2 301C1699.7 301 1672.3 301 1645 301C1617.7 301 1590.3 301 1563 301C1535.7 301 1508.3 301 1480.8 301C1453.3 301 1425.7 301 1398.2 301C1370.7 301 1343.3 301 1316 301C1288.7 301 1261.3 301 1234 301C1206.7 301 1179.3 301 1151.8 301C1124.3 301 1096.7 301 1069.2 301C1041.7 301 1014.3 301 987 301C959.7 301 932.3 301 905 301C877.7 301 850.3 301 822.8 301C795.3 301 767.7 301 740.2 301C712.7 301 685.3 301 658 301C630.7 301 603.3 301 576 301C548.7 301 521.3 301 493.8 301C466.3 301 438.7 301 411.2 301C383.7 301 356.3 301 329 301C301.7 301 274.3 301 247 301C219.7 301 192.3 301 164.8 301C137.3 301 109.7 301 82.2 301C54.7 301 27.3 301 13.7 301L0 301Z" fill="black" transform="rotate(180 1275 150)" />

  </svg>